<mxfile host="app.diagrams.net" modified="2024-07-16T08:26:38.389Z" agent="Mozilla/5.0 (Macintosh; Intel Mac OS X 10_15_7) AppleWebKit/537.36 (KHTML, like Gecko) Chrome/126.0.0.0 Safari/537.36" version="24.6.5" etag="ggFUJno90MTSp9C6rTfN" type="github">
  <diagram name="Page-1" id="z2KbBIwQcHHgIXDryUE9">
    <mxGraphModel>
      <root>
        <mxCell id="0" />
        <mxCell id="1" parent="0" />
      </root>
    </mxGraphModel>
  </diagram>
</mxfile>
